<svg id="visual" viewBox="0 0 1500 700" width="1500" height="700" xmlns="http://www.w3.org/2000/svg" xmlns:xlink="http://www.w3.org/1999/xlink" version="1.1"><rect x="0" y="0" width="1500" height="700" fill="#1c1c1c"></rect><path d="M0 536L31.3 508.8C62.7 481.7 125.3 427.3 187.8 435C250.3 442.7 312.7 512.3 375.2 513C437.7 513.7 500.3 445.3 562.8 439.3C625.3 433.3 687.7 489.7 750.2 514.8C812.7 540 875.3 534 937.8 544.2C1000.3 554.3 1062.7 580.7 1125.2 559.7C1187.7 538.7 1250.3 470.3 1312.8 458.3C1375.3 446.3 1437.7 490.7 1468.8 512.8L1500 535L1500 701L1468.8 701C1437.7 701 1375.3 701 1312.8 701C1250.3 701 1187.7 701 1125.2 701C1062.7 701 1000.3 701 937.8 701C875.3 701 812.7 701 750.2 701C687.7 701 625.3 701 562.8 701C500.3 701 437.7 701 375.2 701C312.7 701 250.3 701 187.8 701C125.3 701 62.7 701 31.3 701L0 701Z" fill="#58d559" stroke-linecap="round" stroke-linejoin="miter"></path></svg>